
<svg xmlns="http://www.w3.org/2000/svg" width="900" height="350">
  <style>
    .title {
      fill: white;
      font-size: 22px;
      font-family: Arial, sans-serif;
      font-weight: bold;
    }

    .label {
      fill: #cccccc;
      font-size: 12px;
      font-family: Arial, sans-serif;
    }

    .bar {
      fill: #00D4AA;
    }
  </style>

  <rect width="100%" height="100%" fill="#0d1117"/>
  <text x="20" y="35" class="title">
    E-Commerce Backend Weekly Commit Trend
  </text>

    <rect
      class="bar"
      x="60"
      y="142.5"
      width="45"
      height="137.5" />

    <text
      class="label"
      x="60"
      y="305">
      10
    </text>

    <text
      class="label"
      x="60"
      y="132.5">
      10
    </text>
    
    <rect
      class="bar"
      x="123"
      y="266.25"
      width="45"
      height="13.75" />

    <text
      class="label"
      x="123"
      y="305">
      11
    </text>

    <text
      class="label"
      x="123"
      y="256.25">
      1
    </text>
    
    <rect
      class="bar"
      x="186"
      y="211.25"
      width="45"
      height="68.75" />

    <text
      class="label"
      x="186"
      y="305">
      12
    </text>

    <text
      class="label"
      x="186"
      y="201.25">
      5
    </text>
    
    <rect
      class="bar"
      x="249"
      y="252.5"
      width="45"
      height="27.5" />

    <text
      class="label"
      x="249"
      y="305">
      13
    </text>

    <text
      class="label"
      x="249"
      y="242.5">
      2
    </text>
    
    <rect
      class="bar"
      x="312"
      y="266.25"
      width="45"
      height="13.75" />

    <text
      class="label"
      x="312"
      y="305">
      14
    </text>

    <text
      class="label"
      x="312"
      y="256.25">
      1
    </text>
    
    <rect
      class="bar"
      x="375"
      y="266.25"
      width="45"
      height="13.75" />

    <text
      class="label"
      x="375"
      y="305">
      15
    </text>

    <text
      class="label"
      x="375"
      y="256.25">
      1
    </text>
    
    <rect
      class="bar"
      x="438"
      y="266.25"
      width="45"
      height="13.75" />

    <text
      class="label"
      x="438"
      y="305">
      16
    </text>

    <text
      class="label"
      x="438"
      y="256.25">
      1
    </text>
    
    <rect
      class="bar"
      x="501"
      y="252.5"
      width="45"
      height="27.5" />

    <text
      class="label"
      x="501"
      y="305">
      18
    </text>

    <text
      class="label"
      x="501"
      y="242.5">
      2
    </text>
    
    <rect
      class="bar"
      x="564"
      y="238.75"
      width="45"
      height="41.25" />

    <text
      class="label"
      x="564"
      y="305">
      20
    </text>

    <text
      class="label"
      x="564"
      y="228.75">
      3
    </text>
    
    <rect
      class="bar"
      x="627"
      y="252.5"
      width="45"
      height="27.5" />

    <text
      class="label"
      x="627"
      y="305">
      21
    </text>

    <text
      class="label"
      x="627"
      y="242.5">
      2
    </text>
    
    <rect
      class="bar"
      x="690"
      y="266.25"
      width="45"
      height="13.75" />

    <text
      class="label"
      x="690"
      y="305">
      22
    </text>

    <text
      class="label"
      x="690"
      y="256.25">
      1
    </text>
    
    <rect
      class="bar"
      x="753"
      y="60.0"
      width="45"
      height="220.0" />

    <text
      class="label"
      x="753"
      y="305">
      23
    </text>

    <text
      class="label"
      x="753"
      y="50.0">
      16
    </text>
    </svg>