
<svg xmlns="http://www.w3.org/2000/svg" width="900" height="350">
  <style>
    .title {
      fill: white;
      font-size: 22px;
      font-family: Arial, sans-serif;
      font-weight: bold;
    }

    .label {
      fill: #cccccc;
      font-size: 12px;
      font-family: Arial, sans-serif;
    }

    .bar {
      fill: #00D4AA;
    }
  </style>

  <rect width="100%" height="100%" fill="#0d1117"/>
  <text x="20" y="35" class="title">
    E-Commerce Backend Weekly Commit Trend
  </text>

    <rect
      class="bar"
      x="60"
      y="260.0"
      width="45"
      height="20.0" />

    <text
      class="label"
      x="60"
      y="305">
      13
    </text>

    <text
      class="label"
      x="60"
      y="250.0">
      2
    </text>
    
    <rect
      class="bar"
      x="123"
      y="270.0"
      width="45"
      height="10.0" />

    <text
      class="label"
      x="123"
      y="305">
      14
    </text>

    <text
      class="label"
      x="123"
      y="260.0">
      1
    </text>
    
    <rect
      class="bar"
      x="186"
      y="270.0"
      width="45"
      height="10.0" />

    <text
      class="label"
      x="186"
      y="305">
      15
    </text>

    <text
      class="label"
      x="186"
      y="260.0">
      1
    </text>
    
    <rect
      class="bar"
      x="249"
      y="270.0"
      width="45"
      height="10.0" />

    <text
      class="label"
      x="249"
      y="305">
      16
    </text>

    <text
      class="label"
      x="249"
      y="260.0">
      1
    </text>
    
    <rect
      class="bar"
      x="312"
      y="260.0"
      width="45"
      height="20.0" />

    <text
      class="label"
      x="312"
      y="305">
      18
    </text>

    <text
      class="label"
      x="312"
      y="250.0">
      2
    </text>
    
    <rect
      class="bar"
      x="375"
      y="250.0"
      width="45"
      height="29.999999999999996" />

    <text
      class="label"
      x="375"
      y="305">
      20
    </text>

    <text
      class="label"
      x="375"
      y="240.0">
      3
    </text>
    
    <rect
      class="bar"
      x="438"
      y="260.0"
      width="45"
      height="20.0" />

    <text
      class="label"
      x="438"
      y="305">
      21
    </text>

    <text
      class="label"
      x="438"
      y="250.0">
      2
    </text>
    
    <rect
      class="bar"
      x="501"
      y="270.0"
      width="45"
      height="10.0" />

    <text
      class="label"
      x="501"
      y="305">
      22
    </text>

    <text
      class="label"
      x="501"
      y="260.0">
      1
    </text>
    
    <rect
      class="bar"
      x="564"
      y="60.0"
      width="45"
      height="220.0" />

    <text
      class="label"
      x="564"
      y="305">
      23
    </text>

    <text
      class="label"
      x="564"
      y="50.0">
      22
    </text>
    
    <rect
      class="bar"
      x="627"
      y="240.0"
      width="45"
      height="40.0" />

    <text
      class="label"
      x="627"
      y="305">
      24
    </text>

    <text
      class="label"
      x="627"
      y="230.0">
      4
    </text>
    
    <rect
      class="bar"
      x="690"
      y="220.0"
      width="45"
      height="59.99999999999999" />

    <text
      class="label"
      x="690"
      y="305">
      25
    </text>

    <text
      class="label"
      x="690"
      y="210.0">
      6
    </text>
    
    <rect
      class="bar"
      x="753"
      y="250.0"
      width="45"
      height="29.999999999999996" />

    <text
      class="label"
      x="753"
      y="305">
      26
    </text>

    <text
      class="label"
      x="753"
      y="240.0">
      3
    </text>
    </svg>